<?xml version="1.0" encoding="UTF-8"?><svg xmlns="http://www.w3.org/2000/svg" xmlns:xlink="http://www.w3.org/1999/xlink" height="1882.4" preserveAspectRatio="xMidYMid meet" version="1.0" viewBox="58.8 58.8 1882.4 1882.4" width="1882.4" zoomAndPan="magnify"><g><g id="change1_1"><path d="M 1941.214844 1000.003906 C 1941.214844 1519.820312 1519.816406 1941.21875 999.996094 1941.21875 C 480.179688 1941.21875 58.78125 1519.820312 58.78125 1000.003906 C 58.78125 480.183594 480.179688 58.785156 999.996094 58.785156 C 1519.816406 58.785156 1941.214844 480.183594 1941.214844 1000.003906" fill="#1a1a1a"/></g><g id="change2_1"><path d="M 1547.160156 1474.789062 L 1547.160156 1412.96875 C 1547.160156 1217.828125 1388.960938 1059.640625 1193.828125 1059.640625 L 806.175781 1059.640625 C 611.035156 1059.640625 452.84375 1217.828125 452.84375 1412.96875 L 452.84375 1474.789062 C 452.84375 1512.410156 483.34375 1542.910156 520.964844 1542.910156 L 1479.039062 1542.910156 C 1516.660156 1542.910156 1547.160156 1512.410156 1547.160156 1474.789062 Z M 1260.941406 700.199219 C 1260.941406 844.308594 1144.121094 961.140625 1000 961.140625 C 855.886719 961.140625 739.054688 844.308594 739.054688 700.199219 C 739.054688 556.078125 855.886719 439.25 1000 439.25 C 1144.121094 439.25 1260.941406 556.078125 1260.941406 700.199219" fill="#fff"/></g></g></svg>