<?xml version="1.0" encoding="UTF-8" standalone="no"?><svg xmlns="http://www.w3.org/2000/svg" xmlns:xlink="http://www.w3.org/1999/xlink" clip-rule="evenodd" fill="#000000" fill-rule="evenodd" height="3024.8" preserveAspectRatio="xMidYMid meet" stroke-linejoin="round" stroke-miterlimit="2" version="1" viewBox="859.9 3695.9 8698.3 3024.8" width="8698.3" zoomAndPan="magnify"><g><g><path d="M116872 0H127288.7V10416.7H116872z" fill="none" transform="translate(-116871.3 .1)"/><g><g id="change1_2"><path d="M6413.64,6026.47C6413.64,5881.21 6286.37,5763.28 6129.6,5763.28L4486.84,5763.28C4330.07,5763.28 4202.8,5881.21 4202.8,6026.47C4202.8,6171.72 4330.07,6289.65 4486.84,6289.65L6129.6,6289.65C6286.37,6289.65 6413.64,6171.72 6413.64,6026.47Z" fill="#ffff00" transform="matrix(3.60445 0 0 3.89017 -13616.792 -18233.76)"/></g><g id="change2_2"><path d="M6429.54,6026.47C6429.54,6179.85 6295.14,6304.37 6129.6,6304.37L4486.84,6304.37C4321.3,6304.37 4186.9,6179.85 4186.9,6026.47C4186.9,5873.08 4321.3,5748.56 4486.84,5748.56L6129.6,5748.56C6295.14,5748.56 6429.54,5873.08 6429.54,6026.47ZM6397.75,6026.47C6397.75,5889.34 6277.59,5778.01 6129.6,5778.01L4486.84,5778.01C4338.85,5778.01 4218.69,5889.34 4218.69,6026.47C4218.69,6163.59 4338.85,6274.92 4486.84,6274.92L6129.6,6274.92C6277.59,6274.92 6397.75,6163.59 6397.75,6026.47Z" fill="#000000" transform="matrix(3.60445 0 0 3.89017 -13616.792 -18233.76)"/></g><g id="change1_1"><path d="M4405.41,5666.11C4407.93,5663.6 4412.01,5663.6 4414.53,5666.11C4441.74,5693.29 4582.43,5833.83 4608.02,5859.4C4609.08,5860.45 4609.67,5861.89 4609.67,5863.39C4609.67,5864.89 4609.08,5866.32 4608.02,5867.38C4582.34,5893.03 4440.76,6034.46 4414.25,6060.94C4411.89,6063.3 4408.06,6063.3 4405.69,6060.94C4379.43,6034.71 4240.19,5895.62 4212.66,5868.11C4211.4,5866.86 4210.7,5865.16 4210.7,5863.39C4210.7,5861.61 4211.4,5859.91 4212.66,5858.66C4240.09,5831.26 4378.45,5693.04 4405.41,5666.11Z" fill="#ffff00" transform="translate(-29623.037 -37319.313) scale(7.253)"/></g><g id="change2_3"><path d="M4399.83,5660.52C4405.43,5654.93 4414.51,5654.93 4420.11,5660.52L4613.6,5853.81C4616.14,5856.35 4617.57,5859.79 4617.57,5863.39C4617.57,5866.98 4616.14,5870.43 4613.6,5872.97L4419.83,6066.53C4414.38,6071.97 4405.56,6071.97 4400.11,6066.53L4207.08,5873.7C4204.34,5870.97 4202.8,5867.26 4202.8,5863.39C4202.8,5859.52 4204.34,5855.81 4207.08,5853.07L4399.83,5660.52ZM4219.1,5863.39L4409.97,6054.05L4600.84,5863.39L4409.97,5672.73L4219.1,5863.39Z" fill="#000000" transform="translate(-29623.037 -37319.313) scale(7.253)"/></g><g id="change2_1"><path d="M953.811,2222.22C993.494,2273.22 1143.12,2457.12 1261.04,2488.45C1362.85,2515.5 1479.93,2301.7 1564.52,2328.29C1649.12,2354.87 1800.15,2561.24 1768.62,2647.93C1737.08,2734.62 1515.7,2892.5 1375.3,2848.42C1113.52,2766.24 833.132,2366.51 802.627,2324.2C764.456,2271.24 501.182,1896.53 511.569,1631.07C517.323,1484.03 738.825,1327.44 831.067,1326.41C923.308,1325.38 1067.97,1536.27 1065.02,1624.9C1062.06,1713.52 821.555,1753.13 813.339,1858.16C804.513,1970.99 910.504,2153.07 953.811,2222.22Z" fill="#000000" transform="rotate(-9.257 21963.757 -4525.807) scale(.92185)"/></g></g></g></g></svg>