<?xml version="1.0" encoding="UTF-8" standalone="no"?><svg xmlns="http://www.w3.org/2000/svg" xmlns:xlink="http://www.w3.org/1999/xlink" clip-rule="evenodd" fill="#ffffff" fill-rule="evenodd" height="28.1" preserveAspectRatio="xMidYMid meet" stroke-linejoin="round" stroke-miterlimit="2" version="1" viewBox="5.0 2.0 22.0 28.1" width="22" zoomAndPan="magnify"><g id="change1_1"><path d="M16,2c-6.071,0 -11,4.929 -11,11c0,2.778 1.654,6.081 3.699,9.019c2.939,4.224 6.613,7.707 6.613,7.707c0.386,0.365 0.99,0.365 1.376,-0c0,-0 3.674,-3.483 6.613,-7.707c2.045,-2.938 3.699,-6.241 3.699,-9.019c0,-6.071 -4.929,-11 -11,-11Zm0,2c4.967,0 9,4.033 9,9c0,2.438 -1.546,5.298 -3.341,7.877c-2.059,2.959 -4.494,5.54 -5.659,6.718c-1.165,-1.178 -3.6,-3.759 -5.659,-6.718c-1.795,-2.579 -3.341,-5.439 -3.341,-7.877c0,-4.967 4.033,-9 9,-9Zm0,3.5c-3.036,0 -5.5,2.464 -5.5,5.5c0,3.036 2.464,5.5 5.5,5.5c3.036,-0 5.5,-2.464 5.5,-5.5c0,-3.036 -2.464,-5.5 -5.5,-5.5Zm0,2c1.932,0 3.5,1.568 3.5,3.5c0,1.932 -1.568,3.5 -3.5,3.5c-1.932,-0 -3.5,-1.568 -3.5,-3.5c0,-1.932 1.568,-3.5 3.5,-3.5Z"/></g></svg>