<?xml version="1.0" encoding="UTF-8" standalone="no"?><svg xmlns="http://www.w3.org/2000/svg" xmlns:xlink="http://www.w3.org/1999/xlink" data-name="Layer 1" fill="#000000" height="1674.3" preserveAspectRatio="xMidYMid meet" version="1" viewBox="163.1 162.6 1674.0 1674.3" width="1674" zoomAndPan="magnify"><g id="change1_2"><path d="M1832.742,993.838c4.339,463.924-367.824,841.095-831.765,842.678-125.568,.428-244.704-26.87-351.654-76.121-34.136-15.72-72.848-18.374-108.768-7.325l-184.512,56.752c-78.279,24.077-149.938-52.538-120.687-129.035l50.058-130.913c16.435-42.982,12.534-91.059-10.497-130.898-71.15-123.072-111.789-266.006-111.563-418.438,.688-462.758,380.249-837.899,842.985-833.406,454.532,4.413,822.153,372.134,826.405,826.705Z" fill="#5fdf40"/></g><g id="change2_1"><circle cx="998.066" cy="1001.808" fill="#ffffff" r="693.929"/></g><g id="change1_3"><path d="M1217.839,1207.65c-29.306-15.382-64.074-16.371-94.206-2.678l-33.131,15.06c-40.207,18.195-87.45,9.98-119.154-20.719-69.156-66.658-109.412-152.323-131.229-213.587-15.82-44.69-.361-94.463,37.994-122.325h0c38.561-28.092,53.925-78.278,37.701-123.141l-36.475-100.864-.286-.783c-20.574-55.534-82.271-83.875-137.805-63.303l-66.473,24.617c-40.265,14.927-67.752,52.423-69.869,95.312-26.194,528.596,412.244,757.295,598.971,830.416,46.668,18.333,99.811,1.904,127.991-39.565l41.955-61.812c2.269-3.344,4.347-6.813,6.225-10.39,27.522-52.438,7.322-117.259-45.118-144.78l-117.095-61.457h.001l.004-.003Z" fill="#5fdf40"/></g><g fill="#5fdf40" id="change1_1"><path d="M1018.814,736.265c-11.457,0-20.745-9.288-20.745-20.745v-128.026c0-11.457,9.288-20.745,20.745-20.745s20.745,9.288,20.745,20.745v128.026c0,11.457-9.288,20.745-20.745,20.745Z"/><path d="M1240.348,873.628c-5.309,0-10.618-2.025-14.669-6.076-8.102-8.102-8.102-21.237,0-29.338l94.687-94.686c8.102-8.102,21.238-8.101,29.338,0,8.102,8.102,8.102,21.237,0,29.338l-94.687,94.686c-4.05,4.05-9.36,6.076-14.669,6.076Z"/><path d="M1515.072,1092.34h-133.361c-11.457,0-20.745-9.288-20.745-20.745s9.288-20.745,20.745-20.745h133.361c11.457,0,20.745,9.288,20.745,20.745s-9.288,20.745-20.745,20.745Z"/></g></svg>